<svg xmlns="http://www.w3.org/2000/svg" width="909.69" height="284.744" viewBox="0 0 909.69 284.744">
  <g id="Grupo_1225" data-name="Grupo 1225" transform="translate(8281.91 9405.461)">
    <path id="Trazado_999" data-name="Trazado 999" d="M491.66,282.61c0-37.91,17.3-55.68,53.64-55.68,11.64,0,21.56,1.88,29.74,5.82v17.3a65.394,65.394,0,0,0-29.11-6.6c-24.7,0-34.76,11.16-34.76,39,0,27.53,9.44,38.7,33.19,38.7a55.743,55.743,0,0,0,15.89-2.05V289.69l18.56-16.51v55.21c-8.65,6.14-20.29,9.28-35.08,9.28-35.24,0-52.07-17.93-52.07-55.06" transform="translate(-8424 -9547)" fill="#1d1e1c"/>
    <path id="Trazado_1000" data-name="Trazado 1000" d="M597.83,295.55c0-27.53,12.74-41.21,38.39-41.21,24.06,0,36.18,12.11,36.18,36.5a84.869,84.869,0,0,1-.79,10.69H616.4c1.1,14.32,9.28,20.77,26.74,20.77a52.712,52.712,0,0,0,24.69-6.14v15.89c-7.07,3.77-15.88,5.66-26.58,5.66-29.58,0-43.42-13.21-43.42-42.16m57.26-7.7c-.78-12.75-6.29-18.41-18.4-18.41-12.59,0-18.72,5.66-20.14,18.41Z" transform="translate(-8424 -9547)" fill="#1d1e1c"/>
    <path id="Trazado_1001" data-name="Trazado 1001" d="M691.09,364.9V256.19h14.63l1.42,9.75a34.26,34.26,0,0,1,26.11-11.64c21.4,0,32.41,14.47,32.41,41.53,0,27.21-11.33,41.84-33.19,41.84a35.714,35.714,0,0,1-23.13-8v20.05Zm56-68.91c0-18.1-5.82-26.28-18.41-26.28-7.39,0-13.84,3.47-19.35,10.54v31.94c5.2,6.76,11.65,10.07,19,10.07,12.74,0,18.72-8.5,18.72-26.27" transform="translate(-8424 -9547)" fill="#1d1e1c"/>
    <path id="Trazado_1002" data-name="Trazado 1002" d="M785.18,335.78V256.19h14.63l1.73,12.42c6.29-9.59,14.47-14.31,24.38-14.31a19.643,19.643,0,0,1,5.66.63V272.7a35.742,35.742,0,0,0-6.61-.62c-9.28,0-16.36,3.93-21.55,11.79v51.91H785.18Z" transform="translate(-8424 -9547)" fill="#1d1e1c"/>
    <path id="Trazado_1003" data-name="Trazado 1003" d="M839.09,295.99c0-27.85,13.05-41.69,39.33-41.69,26.11,0,39.16,13.84,39.16,41.69s-13,41.68-39.16,41.68c-26.27,0-39.33-13.84-39.33-41.68m39.18-26.27c-14,0-20.61,8.33-20.61,26.42,0,17.78,6.61,26.12,20.61,26.12s20.83-8.34,20.83-26.12c0-18.09-6.44-26.42-20.76-26.42" transform="translate(-8424 -9547)" fill="#1d1e1c"/>
    <path id="Trazado_1004" data-name="Trazado 1004" d="M937.1,335.78V256.19h14.63l1.42,9.44c7.08-7.56,15.41-11.33,24.85-11.33,10.38,0,17.62,3.77,21.87,11.33,7.39-7.56,16-11.33,25.64-11.33,17.15,0,26.27,9.91,26.27,28.63v52.85h-18.22V285.6q0-15.105-13.69-15.1c-6,0-11.48,3-16.35,8.81a27.972,27.972,0,0,1,.15,4.09v52.38H985.42v-50c0-10.23-4.24-15.26-12.9-15.26-6.44,0-12.11,3.46-17.14,10.38v54.9Z" transform="translate(-8424 -9547)" fill="#1d1e1c"/>
    <path id="Trazado_1005" data-name="Trazado 1005" d="M344.88,141.62a85.426,85.426,0,0,0-77.35,42.16l-.33.56a84.857,84.857,0,0,0-11.13,36.32V343.98a28.8,28.8,0,1,1-12.32-27.02v-13a39.891,39.891,0,1,0-16.19,76.35c20.51,0,37.7-16.11,39.93-36a5.225,5.225,0,0,0,0-.56V220.76a73.974,73.974,0,0,1,34-56.18,72.858,72.858,0,0,1,10.89-5.72,74.094,74.094,0,1,1,28.9,142.31c-2.1,0-4.18-.11-6.23-.28v11.5c2,.14,4.08.23,6.14.23a85.492,85.492,0,0,0,85.5-85.49c0-1.27-.03-2.54-.08-3.81a85.751,85.751,0,0,0-81.73-81.7" transform="translate(-8424 -9547)" fill="#2f3474"/>
    <path id="Trazado_1006" data-name="Trazado 1006" d="M341.07,186.69a39.9,39.9,0,0,0-39.46,34v123.3c-.06,1.33-.15,2.66-.28,4a74.092,74.092,0,1,1-73.69-81.8,75.332,75.332,0,0,1,28.43,5.63V259.69a87.345,87.345,0,0,0-28.47-4.87,85.5,85.5,0,1,0,84.67,97.25c.36-2.65.85-5.35,1-8.07V220.67a28.492,28.492,0,1,1,27.81,34.41,29.057,29.057,0,0,1-6.44-.75v11.63a39.9,39.9,0,1,0,12.96-78.74,40.393,40.393,0,0,0-6.49-.53h-.04" transform="translate(-8424 -9547)" fill="#008348"/>
    <path id="Trazado_1007" data-name="Trazado 1007" d="M519.66,425.79V391.2h15.71a10.8,10.8,0,0,1,5.63,1.47,10.225,10.225,0,0,1,3.88,4.08,12.5,12.5,0,0,1,1.41,6.02,12.782,12.782,0,0,1-1.41,6.1,10.273,10.273,0,0,1-3.88,4.1,10.91,10.91,0,0,1-5.63,1.46h-9.09V425.8Zm15.42-17.69a4.337,4.337,0,0,0,2.35-.67,4.565,4.565,0,0,0,1.65-1.86,6.141,6.141,0,0,0,.59-2.77,5.579,5.579,0,0,0-1.3-3.83,4.192,4.192,0,0,0-3.28-1.45h-8.75v10.57h8.74Z" transform="translate(-8424 -9547)" fill="#1d1e1c"/>
    <path id="Trazado_1008" data-name="Trazado 1008" d="M557.32,426.28a10.486,10.486,0,0,1-4.77-1.02,7.721,7.721,0,0,1-3.17-2.77,7.256,7.256,0,0,1-1.09-3.92,7.95,7.95,0,0,1,1.09-4.28,7.5,7.5,0,0,1,3.43-2.89,13.538,13.538,0,0,1,5.65-1.04h5.9v-.55a4.239,4.239,0,0,0-4.02-4.45,3.68,3.68,0,0,0-.47,0,5.035,5.035,0,0,0-3.06.84,3.868,3.868,0,0,0-1.49,2.02h-6.08a7.911,7.911,0,0,1,1.51-3.9,9.585,9.585,0,0,1,3.63-2.96,13.731,13.731,0,0,1,11.16.1,9.18,9.18,0,0,1,3.74,3.41,9.443,9.443,0,0,1,1.3,4.94v15.96H565.2l-.49-2.43h-.25a6.98,6.98,0,0,1-2.77,2.03,9.971,9.971,0,0,1-4.37.91m1.09-4.98a6.907,6.907,0,0,0,3.28-.7,4.632,4.632,0,0,0,2.06-2,6.4,6.4,0,0,0,.69-3.04v-.73H559.2a5.667,5.667,0,0,0-3.49.89,2.864,2.864,0,0,0-1.16,2.37,2.938,2.938,0,0,0,1.02,2.35,4.375,4.375,0,0,0,2.83.86h.01Z" transform="translate(-8424 -9547)" fill="#1d1e1c"/>
    <path id="Trazado_1009" data-name="Trazado 1009" d="M576.68,425.79V400.74h5.39l.49,2.19h.25a4.666,4.666,0,0,1,1.75-1.58,5.767,5.767,0,0,1,2.74-.59h4.59v5.87h-4.2a4.8,4.8,0,0,0-3.59,1.24,5.033,5.033,0,0,0-1.2,3.66v14.28Z" transform="translate(-8424 -9547)" fill="#1d1e1c"/>
    <path id="Trazado_1010" data-name="Trazado 1010" d="M604.1,425.79a6.538,6.538,0,0,1-4.71-1.59,5.755,5.755,0,0,1-1.66-4.37V406.61h-3.95v-5.87h3.95v-7.49h6.23v7.51h5.67v5.87h-5.67v11.92a1.717,1.717,0,0,0,.37,1.23,1.606,1.606,0,0,0,1.26.4h4.04v5.63Z" transform="translate(-8424 -9547)" fill="#1d1e1c"/>
    <path id="Trazado_1011" data-name="Trazado 1011" d="M638.15,426.28a12.783,12.783,0,0,1-6.56-1.68,12.055,12.055,0,0,1-4.57-4.64,14.408,14.408,0,0,1,0-13.39,12.081,12.081,0,0,1,4.57-4.65,13.478,13.478,0,0,1,13.06,0,12.081,12.081,0,0,1,4.57,4.65,14.408,14.408,0,0,1,0,13.39,12.124,12.124,0,0,1-4.57,4.64,12.764,12.764,0,0,1-6.5,1.68m0-5.78a6.317,6.317,0,0,0,3.28-.89,6.137,6.137,0,0,0,2.37-2.55,7.892,7.892,0,0,0,.87-3.78,8.088,8.088,0,0,0-.87-3.83,6.263,6.263,0,0,0-2.37-2.55,6.569,6.569,0,0,0-6.56,0,6.461,6.461,0,0,0-2.37,2.55,8.08,8.08,0,0,0-.89,3.83,7.744,7.744,0,0,0,.89,3.78,6.608,6.608,0,0,0,2.37,2.55A6.316,6.316,0,0,0,638.15,420.5Z" transform="translate(-8424 -9547)" fill="#1d1e1c"/>
    <path id="Trazado_1012" data-name="Trazado 1012" d="M657.47,425.79V406.61h-4.06v-5.87h4.06v-3.96a5.9,5.9,0,0,1,1.68-4.45,6.356,6.356,0,0,1,4.59-1.63h5.34v5.39h-3.75a1.55,1.55,0,0,0-1.21.44,1.736,1.736,0,0,0-.43,1.23v2.97h5.39v5.87h-5.39v19.18h-6.22Z" transform="translate(-8424 -9547)" fill="#1d1e1c"/>
    <path id="Trazado_1013" data-name="Trazado 1013" d="M689.77,425.69V397.43h-9.84v-6.37h26.16v6.32h-9.84v28.27Z" transform="translate(-8424 -9547)" fill="#1d1e1c"/>
    <path id="Trazado_1014" data-name="Trazado 1014" d="M717.28,426.19a12.253,12.253,0,0,1-6.33-1.68,11.776,11.776,0,0,1-4.37-4.65,14.766,14.766,0,0,1,0-13.39,11.892,11.892,0,0,1,4.37-4.64,12.132,12.132,0,0,1,6.33-1.68,11.629,11.629,0,0,1,10.4,6.12,13.888,13.888,0,0,1,1.51,7.9,6.085,6.085,0,0,1-.16,1.04H710.89a6.645,6.645,0,0,0,1.09,3,6.381,6.381,0,0,0,5.3,2.79,6.242,6.242,0,0,0,3.16-.77,5.416,5.416,0,0,0,2.01-1.85h6.13a11.274,11.274,0,0,1-2.06,3.67,11.4,11.4,0,0,1-3.78,2.94,11.866,11.866,0,0,1-5.46,1.2m5.99-15.12a6.736,6.736,0,0,0-.94-2.96,5.546,5.546,0,0,0-2.11-2.08,5.816,5.816,0,0,0-2.94-.74,6.3,6.3,0,0,0-3.07.74,5.907,5.907,0,0,0-2.19,2.08,7.172,7.172,0,0,0-1.09,2.96Z" transform="translate(-8424 -9547)" fill="#1d1e1c"/>
    <path id="Trazado_1015" data-name="Trazado 1015" d="M734.1,425.69V391.06h6.04v34.59Z" transform="translate(-8424 -9547)" fill="#1d1e1c"/>
    <path id="Trazado_1016" data-name="Trazado 1016" d="M757.39,426.19a12.35,12.35,0,0,1-6.33-1.68,11.776,11.776,0,0,1-4.37-4.65,14.766,14.766,0,0,1,0-13.39,11.892,11.892,0,0,1,4.37-4.64,12.157,12.157,0,0,1,6.33-1.68,11.629,11.629,0,0,1,10.4,6.12,13.888,13.888,0,0,1,1.51,7.9,6.085,6.085,0,0,1-.16,1.04H751.02a6.764,6.764,0,0,0,1.09,3,6.215,6.215,0,0,0,2.28,2.04,6.335,6.335,0,0,0,3.02.74,6.242,6.242,0,0,0,3.16-.77,5.416,5.416,0,0,0,2.01-1.85h6.13a11.274,11.274,0,0,1-2.06,3.67,11.4,11.4,0,0,1-3.78,2.94,11.708,11.708,0,0,1-5.48,1.21m5.97-15.12a6.736,6.736,0,0,0-.94-2.96,5.59,5.59,0,0,0-2.1-2.08,5.853,5.853,0,0,0-2.95-.74,6.3,6.3,0,0,0-3.07.74,6.066,6.066,0,0,0-2.19,2.08,7.172,7.172,0,0,0-1.09,2.96Z" transform="translate(-8424 -9547)" fill="#1d1e1c"/>
    <path id="Trazado_1017" data-name="Trazado 1017" d="M775.61,425.69V406.52h-3.94v-5.88h3.94v-3.95a5.627,5.627,0,0,1,5.14-6.08,4.816,4.816,0,0,1,.93,0h5.18V396h-3.64a1.529,1.529,0,0,0-1.18.45,1.727,1.727,0,0,0-.4,1.23v2.96h5.23v5.88h-5.23v19.17h-6.03Z" transform="translate(-8424 -9547)" fill="#1d1e1c"/>
    <path id="Trazado_1018" data-name="Trazado 1018" d="M801.1,426.19a12.35,12.35,0,0,1-6.33-1.68,11.793,11.793,0,0,1-4.43-4.65,14.766,14.766,0,0,1,0-13.39,11.9,11.9,0,0,1,4.43-4.64,12.747,12.747,0,0,1,12.65,0,11.862,11.862,0,0,1,4.44,4.64,14.766,14.766,0,0,1,0,13.39,11.818,11.818,0,0,1-4.44,4.65,12.1,12.1,0,0,1-6.32,1.68m0-5.78a5.868,5.868,0,0,0,3.18-.9,6.224,6.224,0,0,0,2.31-2.54,8.247,8.247,0,0,0,.83-3.78,8.482,8.482,0,0,0-.83-3.83,6.123,6.123,0,0,0-8.71-2.55,6.29,6.29,0,0,0-2.3,2.55,8.847,8.847,0,0,0,0,7.61,6.257,6.257,0,0,0,2.3,2.54,5.941,5.941,0,0,0,3.22.9m-2.45-23.71,4.6-7.12h6.28l-5.72,7.12Z" transform="translate(-8424 -9547)" fill="#1d1e1c"/>
    <path id="Trazado_1019" data-name="Trazado 1019" d="M818.03,425.69V400.64h5.21l.48,2.43h.24a7.35,7.35,0,0,1,2.69-2.03,9.649,9.649,0,0,1,4.26-.89,9.5,9.5,0,0,1,4.96,1.31,9.016,9.016,0,0,1,3.4,3.71,12.023,12.023,0,0,1,1.22,5.47v15.01h-6.05V411.44a5.979,5.979,0,0,0-.65-2.81,4.578,4.578,0,0,0-1.83-1.92,4.955,4.955,0,0,0-2.66-.7,5.265,5.265,0,0,0-2.71.72,4.924,4.924,0,0,0-1.89,1.95,5.784,5.784,0,0,0-.67,2.77v14.21Z" transform="translate(-8424 -9547)" fill="#1d1e1c"/>
    <path id="Trazado_1020" data-name="Trazado 1020" d="M849.32,395.8a3.372,3.372,0,0,1-3.5-3.23v-.22a3.307,3.307,0,0,1,.98-2.49,3.4,3.4,0,0,1,2.51-.96,3.527,3.527,0,0,1,2.51.96,3.5,3.5,0,0,1,0,4.96,3.488,3.488,0,0,1-2.5.98m-3.02,29.89V400.64h6.03v25.05Z" transform="translate(-8424 -9547)" fill="#1d1e1c"/>
    <path id="Trazado_1021" data-name="Trazado 1021" d="M869.35,426.19a12.253,12.253,0,0,1-6.33-1.68,11.847,11.847,0,0,1-4.37-4.65,14.766,14.766,0,0,1,0-13.39,11.961,11.961,0,0,1,4.37-4.64,12.157,12.157,0,0,1,6.33-1.68,11.491,11.491,0,0,1,5.71,1.36,11.375,11.375,0,0,1,3.93,3.56,12.517,12.517,0,0,1,1.97,4.77h-6.07a5.748,5.748,0,0,0-1.89-2.8,5.583,5.583,0,0,0-3.62-1.09,6.049,6.049,0,0,0-5.47,3.43,9.037,9.037,0,0,0,0,7.61,6.337,6.337,0,0,0,2.3,2.57,6,6,0,0,0,3.19.91,5.471,5.471,0,0,0,3.62-1.09,5.814,5.814,0,0,0,1.89-2.96H881a12.711,12.711,0,0,1-1.97,4.87,11.154,11.154,0,0,1-3.9,3.61,11.586,11.586,0,0,1-5.78,1.29" transform="translate(-8424 -9547)" fill="#1d1e1c"/>
    <path id="Trazado_1022" data-name="Trazado 1022" d="M893.03,426.19a9.847,9.847,0,0,1-4.62-1.02,7.462,7.462,0,0,1-3.07-2.77,7.265,7.265,0,0,1-1.09-3.93,8.322,8.322,0,0,1,1.09-4.28,7.5,7.5,0,0,1,3.28-2.9,12.973,12.973,0,0,1,5.47-1.04h5.71v-.54a4.382,4.382,0,0,0-1.2-3.21,4.233,4.233,0,0,0-3.16-1.24,4.752,4.752,0,0,0-2.97.84,3.818,3.818,0,0,0-1.44,2.02h-5.89a7.991,7.991,0,0,1,1.47-3.9,9.174,9.174,0,0,1,3.52-2.96,12.965,12.965,0,0,1,10.83.1,8.874,8.874,0,0,1,3.62,3.41,9.607,9.607,0,0,1,1.27,4.94v15.95h-5.23l-.48-2.42h-.09a6.762,6.762,0,0,1-2.68,2.02,9.388,9.388,0,0,1-4.34.93m1.1-4.99a6.7,6.7,0,0,0,3.14-.69,4.579,4.579,0,0,0,1.99-2,6.535,6.535,0,0,0,.68-3.04v-.74h-5.08a5.345,5.345,0,0,0-3.38.89,2.868,2.868,0,0,0-1.09,2.37,2.981,2.981,0,0,0,.98,2.35,4,4,0,0,0,2.72.86Z" transform="translate(-8424 -9547)" fill="#1d1e1c"/>
    <path id="Trazado_1023" data-name="Trazado 1023" d="M929.84,425.69V397.43H920v-6.37h26.17v6.32h-9.84v28.27Z" transform="translate(-8424 -9547)" fill="#1d1e1c"/>
    <path id="Trazado_1024" data-name="Trazado 1024" d="M957.34,426.19a12.192,12.192,0,0,1-6.32-1.68,11.818,11.818,0,0,1-4.44-4.65,14.766,14.766,0,0,1,0-13.39,11.793,11.793,0,0,1,4.44-4.64,12,12,0,0,1,6.32-1.68,11.837,11.837,0,0,1,10.47,6.12,13.014,13.014,0,0,1,1.57,6.37,10.28,10.28,0,0,1-.07,1.53,7.284,7.284,0,0,1-.17,1.04H950.96a6.764,6.764,0,0,0,1.09,3,6.264,6.264,0,0,0,2.27,2.04,6.364,6.364,0,0,0,3.02.74,6.254,6.254,0,0,0,3.17-.77,5.572,5.572,0,0,0,2.01-1.85h6.13a11.12,11.12,0,0,1-2.07,3.67,11.4,11.4,0,0,1-3.78,2.94,11.547,11.547,0,0,1-5.46,1.21m6-15.12a6.855,6.855,0,0,0-.93-2.96,5.546,5.546,0,0,0-2.11-2.08,5.853,5.853,0,0,0-2.95-.74,6.264,6.264,0,0,0-3.06.74,6.146,6.146,0,0,0-2.19,2.08,7.521,7.521,0,0,0-1.09,2.96Z" transform="translate(-8424 -9547)" fill="#1d1e1c"/>
    <path id="Trazado_1025" data-name="Trazado 1025" d="M985.05,426.19a12.253,12.253,0,0,1-6.33-1.68,11.793,11.793,0,0,1-4.43-4.65,14.766,14.766,0,0,1,0-13.39,11.9,11.9,0,0,1,4.43-4.64,12.157,12.157,0,0,1,6.33-1.68,11.491,11.491,0,0,1,5.71,1.36,11.256,11.256,0,0,1,3.92,3.56,12.517,12.517,0,0,1,1.97,4.77h-6.09a5.748,5.748,0,0,0-1.89-2.8,5.583,5.583,0,0,0-3.62-1.09,6.067,6.067,0,0,0-5.47,3.43,9.037,9.037,0,0,0,0,7.61,6.168,6.168,0,0,0,2.31,2.57,5.965,5.965,0,0,0,3.18.91,5.471,5.471,0,0,0,3.62-1.09,5.814,5.814,0,0,0,1.89-2.96h6.09a12.711,12.711,0,0,1-1.97,4.87,11.154,11.154,0,0,1-3.9,3.61,11.688,11.688,0,0,1-5.75,1.29" transform="translate(-8424 -9547)" fill="#1d1e1c"/>
    <path id="Trazado_1026" data-name="Trazado 1026" d="M1001.3,425.69V391.06h6.03v12.03h.24a6.936,6.936,0,0,1,2.59-2.03,8.877,8.877,0,0,1,4.02-.89,9.4,9.4,0,0,1,4.96,1.31,8.826,8.826,0,0,1,3.4,3.71,11.77,11.77,0,0,1,1.22,5.47v15.01h-6.03V411.46a5.951,5.951,0,0,0-.65-2.81,4.637,4.637,0,0,0-1.83-1.92,5.139,5.139,0,0,0-2.66-.7,5.265,5.265,0,0,0-2.71.72,4.859,4.859,0,0,0-1.89,1.95,5.794,5.794,0,0,0-.68,2.77v14.21Z" transform="translate(-8424 -9547)" fill="#1d1e1c"/>
  </g>
</svg>
