<?xml version="1.0" standalone="no"?>
<!DOCTYPE svg PUBLIC "-//W3C//DTD SVG 20010904//EN"
 "http://www.w3.org/TR/2001/REC-SVG-20010904/DTD/svg10.dtd">
<svg version="1.0" xmlns="http://www.w3.org/2000/svg"
 width="720.000000pt" height="290.000000pt" viewBox="0 0 720.000000 290.000000"
 preserveAspectRatio="xMidYMid meet">

<g transform="translate(0.000000,290.000000) scale(0.100000,-0.100000)"
fill="#000000" stroke="none">
<path d="M3200 2884 c-41 -7 -105 -18 -142 -25 l-68 -11 0 -856 c0 -733 3
-866 16 -922 39 -167 166 -252 406 -274 78 -7 68 -24 97 149 11 61 16 113 13
116 -4 3 -31 11 -60 17 -67 15 -99 36 -123 83 -18 37 -19 66 -19 889 l0 850
-22 -1 c-13 -1 -57 -7 -98 -15z"/>
<path d="M2325 2821 c-78 -36 -115 -95 -115 -183 0 -136 112 -221 255 -194 49
9 122 77 135 125 40 143 -51 272 -192 271 -24 0 -61 -9 -83 -19z"/>
<path d="M6869 2812 c-39 -20 -58 -38 -76 -71 -30 -58 -31 -145 -3 -201 58
-114 237 -135 327 -38 29 31 53 90 53 130 0 163 -156 256 -301 180z"/>
<path d="M240 2634 c-41 -7 -106 -18 -143 -25 l-68 -11 3 -696 c4 -678 4 -699
25 -774 25 -88 44 -128 85 -181 118 -150 401 -196 676 -112 46 15 85 32 88 39
3 7 -7 65 -21 130 -14 65 -25 119 -25 120 0 2 -37 -8 -81 -21 -113 -32 -246
-32 -309 0 -37 18 -51 33 -75 82 l-30 60 -3 352 -3 353 248 2 248 3 3 138 3
137 -251 0 -250 0 0 210 0 210 -22 -1 c-13 -1 -57 -7 -98 -15z"/>
<path d="M6254 2220 l-70 -71 -77 39 c-192 99 -418 100 -617 5 -104 -49 -230
-176 -283 -284 -55 -113 -79 -214 -80 -344 -2 -209 60 -377 191 -517 125 -134
264 -191 499 -207 186 -12 258 -48 309 -156 62 -130 6 -254 -145 -323 -44 -20
-76 -26 -158 -30 -125 -6 -204 9 -275 52 -67 40 -105 95 -119 171 -7 33 -13
66 -15 73 -3 10 -37 12 -146 10 l-143 -3 2 -70 c3 -77 31 -183 70 -260 40 -79
157 -188 244 -230 122 -57 185 -70 349 -70 124 0 156 3 220 23 120 38 207 89
285 167 187 187 223 438 95 662 -16 28 -54 77 -83 110 l-54 58 48 54 c58 65
112 170 140 277 40 149 26 361 -32 493 l-20 45 86 86 85 85 -113 113 c-62 61
-115 112 -117 112 -3 0 -37 -32 -76 -70z m-306 -321 c261 -127 251 -581 -16
-701 -72 -33 -199 -31 -272 3 -76 35 -121 77 -158 147 -60 112 -65 279 -13
397 74 168 284 239 459 154z"/>
<path d="M1506 2249 c-78 -12 -257 -55 -301 -73 l-35 -15 0 -665 0 -666 165 0
165 0 0 560 0 559 38 11 c79 23 231 23 337 1 54 -11 100 -19 102 -17 7 7 56
267 51 271 -3 3 -51 14 -107 25 -109 21 -302 25 -415 9z"/>
<path d="M4100 2245 c-220 -49 -395 -214 -472 -444 -31 -93 -32 -102 -33 -266
0 -189 10 -243 69 -370 83 -178 228 -300 416 -351 80 -22 262 -25 340 -5 30 7
93 31 139 52 112 52 229 167 284 280 99 203 113 475 33 693 -70 194 -209 330
-406 396 -85 29 -275 36 -370 15z m277 -330 c135 -40 223 -192 223 -384 0
-191 -70 -325 -199 -384 -69 -32 -216 -31 -289 2 -66 30 -133 103 -164 179
-20 50 -23 74 -23 202 0 143 0 146 33 214 60 128 150 184 293 185 41 1 98 -6
126 -14z"/>
<path d="M2250 1530 l0 -700 165 0 165 0 0 700 0 700 -165 0 -165 0 0 -700z"/>
<path d="M6810 1530 l0 -700 160 0 160 0 0 700 0 700 -160 0 -160 0 0 -700z"/>
</g>
</svg>
